<svg width="41" height="45" viewBox="0 0 41 45" fill="none" xmlns="http://www.w3.org/2000/svg">
<g clip-path="url(#clip0_2_56)">
<path d="M30.198 28.2547C30.198 28.1612 30.1155 28.1612 30.1155 28.0679C29.785 27.3206 29.0416 26.3867 28.0503 25.3593C27.5548 24.8922 27.3069 24.5186 27.1418 24.3319C26.8939 23.9582 26.8939 23.678 26.9766 23.3044C27.0592 23.0243 27.3896 22.5573 27.9678 21.7166C28.2982 21.2496 28.4633 20.9695 28.7112 20.6892C29.9503 18.8212 30.5285 17.6069 30.3633 17.0466L30.2807 16.9532C30.198 16.8598 30.1155 16.7663 29.9503 16.7663C29.785 16.673 29.5373 16.673 29.2895 16.7663H26.1505C26.0679 16.7663 26.0679 16.7663 25.9027 16.7663C25.8201 16.7663 25.7375 16.7663 25.7375 16.7663H25.6549H25.5723L25.4897 16.8598C25.4071 16.9532 25.4071 16.9532 25.4071 17.0466C25.0766 18.074 24.6636 18.9146 24.2506 19.8486C24.0028 20.3156 23.755 20.7826 23.5072 21.1562C23.2594 21.5298 23.0942 21.8101 22.929 21.9968C22.7638 22.1837 22.5985 22.277 22.516 22.4638C22.4334 22.5573 22.2681 22.6507 22.2681 22.5573C22.1855 22.5573 22.103 22.5573 22.103 22.4638C22.0204 22.3704 21.9377 22.277 21.8551 22.1837C21.7725 22.0902 21.7725 21.9034 21.69 21.7166C21.69 21.5298 21.69 21.3431 21.69 21.2496C21.69 21.1562 21.69 20.876 21.69 20.6892C21.69 20.409 21.69 20.2222 21.69 20.1289C21.69 19.8486 21.69 19.475 21.69 19.1014C21.69 18.7278 21.69 18.4475 21.69 18.2608C21.69 18.074 21.69 17.7938 21.69 17.6069C21.69 17.3268 21.69 17.14 21.69 17.0466C21.69 16.9532 21.6074 16.7663 21.6074 16.673C21.5247 16.5796 21.4421 16.4862 21.3595 16.3927C21.2769 16.2994 21.1117 16.2994 21.0291 16.206C20.6161 16.1126 20.1204 16.0192 19.5423 16.0192C18.2206 16.0192 17.312 16.1126 16.9816 16.2994C16.8163 16.3928 16.6511 16.4862 16.5686 16.673C16.4033 16.8598 16.4033 16.9532 16.4859 16.9532C16.8989 17.0466 17.2293 17.2333 17.3946 17.5136L17.4771 17.7004C17.5597 17.7938 17.5597 17.9806 17.6423 18.2608C17.725 18.541 17.725 18.8212 17.725 19.1948C17.725 19.7552 17.725 20.3156 17.725 20.6892C17.725 21.1562 17.6423 21.4364 17.6423 21.7166C17.6423 21.9968 17.5597 22.1837 17.4771 22.277C17.3946 22.4638 17.3946 22.5573 17.312 22.5573C17.312 22.5573 17.312 22.6507 17.2293 22.6507C17.1467 22.6507 17.0641 22.744 16.8989 22.744C16.8163 22.744 16.6511 22.6507 16.5686 22.5573C16.4033 22.4638 16.2381 22.277 16.1555 22.0902C15.9903 21.9034 15.825 21.6232 15.6599 21.2496C15.4947 20.876 15.2469 20.5025 15.0816 19.942L14.9165 19.5684C14.8339 19.3816 14.6686 19.008 14.5034 18.541C14.3382 18.074 14.173 17.7004 14.0078 17.2334C13.9252 17.0466 13.8426 16.9532 13.76 16.8598H13.6774C13.6774 16.8598 13.5948 16.7663 13.5122 16.7663C13.4296 16.7663 13.347 16.673 13.2643 16.673H10.2907C9.96024 16.673 9.79503 16.7663 9.71243 16.8598L9.62982 16.9532C9.62982 16.9532 9.62982 17.0466 9.62982 17.14C9.62982 17.2334 9.62983 17.3268 9.71243 17.5136C10.1255 18.6344 10.6211 19.7552 11.1167 20.876C11.6123 21.9034 12.1079 22.8374 12.4383 23.4913C12.8513 24.1451 13.1818 24.7988 13.5948 25.3593C14.0078 25.9197 14.2556 26.2933 14.3382 26.48C14.5034 26.6669 14.586 26.7603 14.6686 26.8537L14.9165 27.1339C15.0816 27.3206 15.3295 27.6009 15.6599 27.8811C15.9903 28.1612 16.4033 28.4415 16.8163 28.7217C17.2293 29.0018 17.725 29.1887 18.2206 29.3755C18.7988 29.5623 19.2944 29.6557 19.79 29.5623H21.0291C21.2769 29.5623 21.4421 29.4689 21.6074 29.2821L21.69 29.1887C21.69 29.0953 21.7725 29.0953 21.7725 29.0018C21.7725 28.9085 21.7725 28.8151 21.7725 28.6283C21.7725 28.2547 21.7725 27.9745 21.8551 27.6943C21.9377 27.4141 21.9378 27.2273 22.0204 27.0405C22.103 26.8537 22.1855 26.7603 22.2681 26.6669C22.3508 26.5734 22.4334 26.48 22.4334 26.48H22.516C22.6811 26.3867 22.929 26.48 23.0942 26.6669C23.342 26.8537 23.5898 27.1339 23.755 27.4141C23.9202 27.6943 24.1681 27.9745 24.4985 28.3481C24.8289 28.7217 25.0766 29.0018 25.2419 29.0953L25.4897 29.2821C25.6549 29.3755 25.8201 29.4689 26.0679 29.5623C26.3158 29.6557 26.4809 29.6557 26.6461 29.6557L29.4546 29.5623C29.7025 29.5623 29.9503 29.4689 30.1155 29.3755C30.2807 29.2821 30.3633 29.1887 30.3633 29.0018C30.3633 28.9085 30.3633 28.7217 30.3633 28.6283C30.198 28.4415 30.198 28.3481 30.198 28.2547Z" fill="black"/>
<path d="M39.8404 22.5C39.8404 34.7098 31.0993 44.5 20.4415 44.5C9.7837 44.5 1.04254 34.7098 1.04254 22.5C1.04254 10.2902 9.7837 0.5 20.4415 0.5C31.0993 0.5 39.8404 10.2902 39.8404 22.5Z" stroke="black"/>
</g>
<defs>
<clipPath id="clip0_2_56">
<rect width="39.7979" height="45" fill="white" transform="translate(0.542542)"/>
</clipPath>
</defs>
</svg>
