<svg width="41" height="46" viewBox="0 0 41 46" fill="none" xmlns="http://www.w3.org/2000/svg">
<g clip-path="url(#clip0_2_64)">
<path d="M31.3751 24.8784C31.4429 24.2511 31.5107 23.7023 31.5107 23.075C31.5107 16.8023 27.1013 11.6273 21.6065 11.6273C21.0637 11.6273 20.589 11.7057 20.0462 11.7841C19.1644 11.2352 18.2146 11 17.2649 11C13.8731 11 11.1595 14.1364 11.1595 18.0569C11.1595 19.1545 11.363 20.2523 11.8379 21.2716C11.77 21.8989 11.7023 22.4477 11.7023 23.075C11.7023 29.3477 16.1117 34.5227 21.6065 34.5227C22.1492 34.5227 22.624 34.4444 23.1668 34.3659C24.0486 34.8364 24.9984 35.15 25.948 35.15C29.3399 35.15 32.0534 32.0136 32.0534 28.0931C32.0534 26.9955 31.7821 25.8977 31.3751 24.8784ZM25.7446 27.2306C25.541 27.7011 25.2697 28.0931 24.8626 28.4069C24.4556 28.7205 24.0486 28.9556 23.5059 29.1125C22.9632 29.2694 22.3527 29.3477 21.6743 29.3477C20.2498 29.3477 19.0965 28.9556 18.2825 28.25C17.8076 27.7795 17.4005 27.2306 17.1971 26.525C16.9258 25.8977 17.4005 25.1136 18.0789 25.1136H18.2825C18.6895 25.1136 19.0965 25.4273 19.2321 25.8194C19.3679 26.2114 19.5713 26.525 19.8427 26.7602C20.2498 27.1523 20.8603 27.3091 21.6065 27.3091C22.2848 27.3091 22.8276 27.1523 23.2346 26.917C23.6417 26.6819 23.8451 26.2114 23.8451 25.7409C23.8451 25.5056 23.7773 25.3489 23.7094 25.192C23.6417 25.0352 23.4381 24.8784 23.3024 24.8C23.0989 24.6431 22.8954 24.5648 22.5562 24.4864C22.2848 24.408 21.9457 24.2511 21.5386 24.1727L21.1316 24.0159C20.6568 23.8591 20.1141 23.7023 19.707 23.5455C19.2321 23.3886 18.8251 23.1534 18.4859 22.9181C18.1468 22.683 17.8754 22.3694 17.672 21.8989C17.4684 21.5069 17.4005 20.958 17.4005 20.3306C17.4005 19.7034 17.5363 19.1545 17.7397 18.6841C17.9433 18.2136 18.2825 17.8216 18.6216 17.5864C19.0287 17.2727 19.4357 17.0375 19.9784 16.9591C20.4532 16.8023 20.996 16.7239 21.6065 16.7239C22.2848 16.7239 22.8276 16.8023 23.3702 16.9591C23.913 17.1159 24.32 17.3511 24.727 17.7431C25.1341 18.0569 25.4054 18.4489 25.6089 18.9977C25.948 19.7034 25.4732 20.6444 24.727 20.6444H24.5235C24.1164 20.6444 23.7773 20.4091 23.5738 20.017C23.4381 19.7819 23.3024 19.5466 23.0989 19.3114C22.7597 18.9977 22.217 18.8409 21.6065 18.8409C20.996 18.8409 20.5211 18.9977 20.1819 19.233C19.8427 19.4681 19.707 19.8602 19.707 20.2523C19.707 20.4875 19.7749 20.6444 19.8427 20.8011C19.9106 20.958 20.0462 21.1148 20.2498 21.1931C20.4532 21.2716 20.6568 21.4284 20.9281 21.5069C21.1995 21.5852 21.5386 21.6636 21.9457 21.8205C22.3527 21.8989 22.6919 22.0556 23.0989 22.1341C23.4381 22.2125 23.7773 22.3694 24.1164 22.4477C24.4556 22.6045 24.727 22.7614 24.9984 22.9181C25.2697 23.075 25.4732 23.3102 25.6767 23.5455C25.8803 23.7806 26.0159 24.0944 26.0837 24.408C26.2195 24.7216 26.2195 25.192 26.2195 25.6625C26.0837 26.2114 25.948 26.7602 25.7446 27.2306Z" fill="black"/>
<path d="M40.2766 23C40.2766 35.4968 31.5258 45.5 20.8776 45.5C10.2294 45.5 1.4787 35.4968 1.4787 23C1.4787 10.5032 10.2294 0.5 20.8776 0.5C31.5258 0.5 40.2766 10.5032 40.2766 23Z" stroke="black"/>
</g>
<defs>
<clipPath id="clip0_2_64">
<rect width="39.7979" height="46" fill="white" transform="translate(0.978699)"/>
</clipPath>
</defs>
</svg>
