<svg width="41" height="45" viewBox="0 0 41 45" fill="none" xmlns="http://www.w3.org/2000/svg">
<g clip-path="url(#clip0_2_68)">
<path d="M26.8081 13.5H14.708C13.3419 13.5 12.301 14.677 12.301 16.2216V29.9034C12.301 31.448 13.3419 32.625 14.708 32.625H26.8081C28.1742 32.625 29.2151 31.448 29.2151 29.9034V16.2216C29.2151 14.677 28.1742 13.5 26.8081 13.5ZM20.7581 28.8C23.5554 28.8 25.8323 26.299 25.8323 23.2832C25.8323 22.7683 25.7672 22.1798 25.6371 21.7385H27.0683V29.5355C27.0683 29.9034 26.8081 30.2712 26.4178 30.2712H15.0983C14.7731 30.2712 14.4478 29.977 14.4478 29.5355V21.6649H15.944C15.814 22.1798 15.7489 22.6947 15.7489 23.2097C15.6838 26.299 17.9608 28.8 20.7581 28.8ZM20.7581 26.5933C18.9365 26.5933 17.5054 24.975 17.5054 22.9889C17.5054 21.0029 18.9365 19.3847 20.7581 19.3847C22.5796 19.3847 24.0108 21.0029 24.0108 22.9889C24.0108 25.0486 22.5796 26.5933 20.7581 26.5933ZM27.0033 18.7226C27.0033 19.1639 26.678 19.5317 26.2877 19.5317H24.4661C24.0758 19.5317 23.7506 19.1639 23.7506 18.7226V16.7365C23.7506 16.2952 24.0758 15.9274 24.4661 15.9274H26.2877C26.678 15.9274 27.0033 16.2952 27.0033 16.7365V18.7226Z" fill="black"/>
<path d="M39.6596 22.5C39.6596 34.7098 30.9184 44.5 20.2606 44.5C9.60285 44.5 0.861694 34.7098 0.861694 22.5C0.861694 10.2902 9.60285 0.5 20.2606 0.5C30.9184 0.5 39.6596 10.2902 39.6596 22.5Z" stroke="black"/>
</g>
<defs>
<clipPath id="clip0_2_68">
<rect width="39.7979" height="45" fill="white" transform="translate(0.361694)"/>
</clipPath>
</defs>
</svg>
