<svg width="42" height="45" viewBox="0 0 42 45" fill="none" xmlns="http://www.w3.org/2000/svg">
<g clip-path="url(#clip0_2_60)">
<path d="M10.3177 22.9209L14.9989 24.8497L16.8238 31.3377C16.9032 31.7761 17.3792 31.8637 17.6966 31.6007L20.3149 29.2335C20.5529 28.9704 20.9496 28.9704 21.267 29.2335L25.9482 33.0035C26.2657 33.2665 26.7417 33.0912 26.821 32.6528L30.3122 14.241C30.3915 13.8026 29.9947 13.3642 29.5981 13.5396L10.3177 21.781C9.84162 21.9564 9.84162 22.7455 10.3177 22.9209ZM16.5858 23.8852L25.7895 17.6604C25.9482 17.5726 26.107 17.8356 25.9482 17.9234L18.4106 25.7265C18.1726 25.9895 17.9346 26.3402 17.9346 26.7786L17.6966 28.8828C17.6966 29.1458 17.2999 29.2335 17.2205 28.8828L16.2684 25.0251C16.0304 24.5866 16.1891 24.0606 16.5858 23.8852Z" fill="black"/>
<path d="M41.0213 22.5C41.0213 34.6984 32.0831 44.5 21.1596 44.5C10.236 44.5 1.29785 34.6984 1.29785 22.5C1.29785 10.3016 10.236 0.5 21.1596 0.5C32.0831 0.5 41.0213 10.3016 41.0213 22.5Z" stroke="black"/>
</g>
<defs>
<clipPath id="clip0_2_60">
<rect width="40.7234" height="45" fill="white" transform="translate(0.797852)"/>
</clipPath>
</defs>
</svg>
