<svg width="52" height="58" viewBox="0 0 52 58" fill="none" xmlns="http://www.w3.org/2000/svg">
<g clip-path="url(#clip0_6_46)">
<path d="M34.6943 17.3152H19.1745C17.4224 17.3152 16.0873 18.8248 16.0873 20.8059V38.3543C16.0873 40.3355 17.4224 41.8451 19.1745 41.8451H34.6943C36.4464 41.8451 37.7815 40.3355 37.7815 38.3543V20.8059C37.7815 18.8248 36.4464 17.3152 34.6943 17.3152ZM26.9344 36.9391C30.5223 36.9391 33.4427 33.7313 33.4427 29.8632C33.4427 29.2028 33.3592 28.448 33.1923 27.8819H35.028V37.8825C35.028 38.3543 34.6943 38.826 34.1937 38.826H19.6752C19.258 38.826 18.8408 38.4487 18.8408 37.8825V27.7876H20.7599C20.5931 28.448 20.5096 29.1084 20.5096 29.7689C20.4262 33.7313 23.3466 36.9391 26.9344 36.9391ZM26.9344 34.1088C24.5981 34.1088 22.7625 32.0331 22.7625 29.4858C22.7625 26.9384 24.5981 24.8629 26.9344 24.8629C29.2708 24.8629 31.1063 26.9384 31.1063 29.4858C31.1063 32.1275 29.2708 34.1088 26.9344 34.1088ZM34.9445 24.0137C34.9445 24.5798 34.5274 25.0515 34.0268 25.0515H31.6904C31.1898 25.0515 30.7726 24.5798 30.7726 24.0137V21.4664C30.7726 20.9003 31.1898 20.4286 31.6904 20.4286H34.0268C34.5274 20.4286 34.9445 20.9003 34.9445 21.4664V24.0137Z" fill="white"/>
<path d="M51.3189 28.8587C51.3189 44.5803 40.06 57.2174 26.2964 57.2174C12.5327 57.2174 1.2738 44.5803 1.2738 28.8587C1.2738 13.1371 12.5327 0.5 26.2964 0.5C40.06 0.5 51.3189 13.1371 51.3189 28.8587Z" stroke="white"/>
</g>
<defs>
<clipPath id="clip0_6_46">
<rect width="51.0451" height="57.7174" fill="white" transform="translate(0.773804)"/>
</clipPath>
</defs>
</svg>
