<svg width="52" height="59" viewBox="0 0 52 59" fill="none" xmlns="http://www.w3.org/2000/svg">
<g clip-path="url(#clip0_6_42)">
<path d="M38.9867 31.9092C39.0737 31.1046 39.1606 30.4008 39.1606 29.5961C39.1606 21.5508 33.505 14.9132 26.4574 14.9132C25.7613 14.9132 25.1523 15.0138 24.4562 15.1143C23.3251 14.4104 22.1069 14.1086 20.8889 14.1086C16.5384 14.1086 13.058 18.1314 13.058 23.1598C13.058 24.5677 13.319 25.9758 13.9281 27.283C13.8411 28.0877 13.7542 28.7915 13.7542 29.5961C13.7542 37.6415 19.4097 44.279 26.4574 44.279C27.1535 44.279 27.7625 44.1786 28.4586 44.078C29.5896 44.6814 30.8078 45.0836 32.0259 45.0836C36.3763 45.0836 39.8567 41.0609 39.8567 36.0325C39.8567 34.6246 39.5087 33.2165 38.9867 31.9092ZM31.7649 34.9262C31.5038 35.5296 31.1558 36.0325 30.6338 36.4348C30.1117 36.8371 29.5896 37.1387 28.8936 37.3399C28.1975 37.5411 27.4145 37.6415 26.5444 37.6415C24.7173 37.6415 23.2381 37.1387 22.194 36.2336C21.5849 35.6302 21.0628 34.9262 20.8018 34.0211C20.4538 33.2165 21.0628 32.2109 21.9329 32.2109H22.194C22.716 32.2109 23.2381 32.6133 23.412 33.1161C23.5861 33.6189 23.8471 34.0211 24.1952 34.3228C24.7173 34.8258 25.5003 35.0268 26.4574 35.0268C27.3274 35.0268 28.0236 34.8258 28.5456 34.524C29.0677 34.2223 29.3287 33.6189 29.3287 33.0155C29.3287 32.7137 29.2416 32.5127 29.1546 32.3115C29.0677 32.1103 28.8066 31.9092 28.6325 31.8086C28.3716 31.6075 28.1106 31.507 27.6754 31.4064C27.3274 31.3058 26.8924 31.1046 26.3703 31.004L25.8483 30.803C25.2393 30.6018 24.5432 30.4008 24.0211 30.1996C23.412 29.9984 22.89 29.6967 22.4549 29.395C22.0199 29.0933 21.6719 28.6911 21.4109 28.0877C21.1498 27.5848 21.0628 26.8808 21.0628 26.0762C21.0628 25.2717 21.2369 24.5677 21.4978 23.9643C21.7589 23.3609 22.194 22.858 22.629 22.5564C23.1511 22.154 23.6731 21.8524 24.3691 21.7518C24.9782 21.5508 25.6743 21.4502 26.4574 21.4502C27.3274 21.4502 28.0236 21.5508 28.7196 21.7518C29.4157 21.953 29.9378 22.2546 30.4598 22.7575C30.9819 23.1598 31.3299 23.6627 31.5909 24.3665C32.0259 25.2717 31.4169 26.4786 30.4598 26.4786H30.1987C29.6767 26.4786 29.2416 26.1768 28.9807 25.674C28.8066 25.3723 28.6325 25.0705 28.3716 24.7689C27.9365 24.3665 27.2404 24.1655 26.4574 24.1655C25.6743 24.1655 25.0653 24.3665 24.6302 24.6683C24.1952 24.97 24.0211 25.4728 24.0211 25.9758C24.0211 26.2774 24.1082 26.4786 24.1952 26.6796C24.2822 26.8808 24.4562 27.082 24.7173 27.1825C24.9782 27.283 25.2393 27.4842 25.5873 27.5848C25.9353 27.6853 26.3703 27.7859 26.8924 27.9871C27.4145 28.0877 27.8495 28.2887 28.3716 28.3893C28.8066 28.4899 29.2416 28.6911 29.6767 28.7915C30.1117 28.9927 30.4598 29.1939 30.8078 29.395C31.1558 29.5961 31.4169 29.8978 31.6779 30.1996C31.939 30.5012 32.1129 30.9036 32.2 31.3058C32.374 31.708 32.374 32.3115 32.374 32.9149C32.2 33.6189 32.0259 34.3228 31.7649 34.9262Z" fill="white"/>
<path d="M50.5451 29.5C50.5451 45.5867 39.2766 58.5 25.5225 58.5C11.7685 58.5 0.5 45.5867 0.5 29.5C0.5 13.4133 11.7685 0.5 25.5225 0.5C39.2766 0.5 50.5451 13.4133 50.5451 29.5Z" stroke="white"/>
</g>
<defs>
<clipPath id="clip0_6_42">
<rect width="51.0451" height="59" fill="white"/>
</clipPath>
</defs>
</svg>
