<svg width="53" height="58" viewBox="0 0 53 58" fill="none" xmlns="http://www.w3.org/2000/svg">
<g clip-path="url(#clip0_6_38)">
<path d="M12.7391 29.3985L18.7434 31.8724L21.084 40.1939C21.1857 40.7562 21.7963 40.8686 22.2033 40.5313L25.5616 37.4951C25.8669 37.1577 26.3758 37.1577 26.7828 37.4951L32.787 42.3305C33.1942 42.6678 33.8048 42.443 33.9065 41.8807L38.3842 18.2656C38.486 17.7033 37.9771 17.141 37.4683 17.366L12.7391 27.9365C12.1285 28.1614 12.1285 29.1735 12.7391 29.3985ZM20.7787 30.6354L32.5835 22.6513C32.787 22.5388 32.9906 22.8761 32.787 22.9887L23.1192 32.997C22.8139 33.3344 22.5086 33.7841 22.5086 34.3464L22.2033 37.0453C22.2033 37.3827 21.6946 37.4951 21.5928 37.0453L20.3716 32.0973C20.0663 31.535 20.2698 30.8603 20.7787 30.6354Z" fill="white"/>
<path d="M52.2612 28.8587C52.2612 44.5689 40.7466 57.2174 26.6451 57.2174C12.5435 57.2174 1.02896 44.5689 1.02896 28.8587C1.02896 13.1485 12.5435 0.5 26.6451 0.5C40.7466 0.5 52.2612 13.1485 52.2612 28.8587Z" stroke="#FEFEFE"/>
</g>
<defs>
<clipPath id="clip0_6_38">
<rect width="52.2322" height="57.7174" fill="white" transform="translate(0.528961)"/>
</clipPath>
</defs>
</svg>
