<svg width="52" height="58" viewBox="0 0 52 58" fill="none" xmlns="http://www.w3.org/2000/svg">
<g clip-path="url(#clip0_6_34)">
<path d="M38.2813 36.2397C38.2813 36.1198 38.1754 36.1198 38.1754 36.0001C37.7516 35.0417 36.7981 33.8438 35.5267 32.5261C34.891 31.927 34.5731 31.4478 34.3613 31.2082C34.0434 30.729 34.0434 30.3696 34.1495 29.8904C34.2554 29.5311 34.6792 28.9321 35.4207 27.8538C35.8445 27.2549 36.0564 26.8956 36.3743 26.5362C37.9635 24.1402 38.7051 22.5828 38.4933 21.8641L38.3873 21.7443C38.2813 21.6245 38.1754 21.5046 37.9635 21.5046C37.7516 21.3849 37.4338 21.3849 37.1159 21.5046H33.0899C32.984 21.5046 32.984 21.5046 32.772 21.5046C32.6661 21.5046 32.5602 21.5046 32.5602 21.5046H32.4542H32.3483L32.2423 21.6245C32.1364 21.7443 32.1364 21.7443 32.1364 21.8641C31.7126 23.1819 31.1828 24.2601 30.6531 25.458C30.3352 26.057 30.0174 26.6559 29.6996 27.1351C29.3817 27.6143 29.1699 27.9738 28.9579 28.2133C28.7461 28.4529 28.5341 28.5727 28.4282 28.8122C28.3223 28.9321 28.1103 29.0519 28.1103 28.9321C28.0044 28.9321 27.8985 28.9321 27.8985 28.8122C27.7926 28.6925 27.6865 28.5727 27.5806 28.4529C27.4747 28.333 27.4747 28.0935 27.3688 27.8538C27.3688 27.6143 27.3688 27.3748 27.3688 27.2549C27.3688 27.1351 27.3688 26.7757 27.3688 26.5362C27.3688 26.1767 27.3688 25.9372 27.3688 25.8174C27.3688 25.458 27.3688 24.9788 27.3688 24.4996C27.3688 24.0204 27.3688 23.661 27.3688 23.4214C27.3688 23.1819 27.3688 22.8225 27.3688 22.5828C27.3688 22.2235 27.3688 21.9838 27.3688 21.8641C27.3688 21.7443 27.2628 21.5046 27.2628 21.3849C27.1568 21.2651 27.0509 21.1453 26.945 21.0254C26.839 20.9057 26.6271 20.9057 26.5211 20.7859C25.9914 20.6662 25.3557 20.5464 24.6141 20.5464C22.9189 20.5464 21.7535 20.6662 21.3297 20.9057C21.1178 21.0256 20.9059 21.1453 20.8 21.3849C20.5881 21.6245 20.5881 21.7443 20.694 21.7443C21.2237 21.8641 21.6475 22.1036 21.8595 22.463L21.9654 22.7027C22.0713 22.8225 22.0713 23.062 22.1772 23.4214C22.2833 23.7809 22.2833 24.1402 22.2833 24.6194C22.2833 25.3382 22.2833 26.057 22.2833 26.5362C22.2833 27.1351 22.1772 27.4946 22.1772 27.8538C22.1772 28.2133 22.0713 28.4529 21.9654 28.5727C21.8595 28.8122 21.8595 28.9321 21.7535 28.9321C21.7535 28.9321 21.7535 29.0519 21.6475 29.0519C21.5416 29.0519 21.4357 29.1717 21.2237 29.1717C21.1178 29.1717 20.9059 29.0519 20.8 28.9321C20.5881 28.8122 20.3762 28.5727 20.2702 28.333C20.0583 28.0935 19.8464 27.7341 19.6345 27.2549C19.4227 26.7757 19.1048 26.2966 18.8928 25.5778L18.681 25.0986C18.5751 24.859 18.3631 24.3798 18.1513 23.7809C17.9393 23.1819 17.7275 22.7027 17.5155 22.1037C17.4096 21.8641 17.3037 21.7443 17.1978 21.6245H17.0918C17.0918 21.6245 16.9858 21.5046 16.8799 21.5046C16.774 21.5046 16.668 21.3849 16.562 21.3849H12.7479C12.3241 21.3849 12.1122 21.5046 12.0063 21.6245L11.9003 21.7443C11.9003 21.7443 11.9003 21.8641 11.9003 21.9838C11.9003 22.1037 11.9003 22.2235 12.0063 22.463C12.536 23.9006 13.1717 25.3382 13.8073 26.7757C14.4431 28.0935 15.0788 29.2914 15.5026 30.1301C16.0323 30.9687 16.4561 31.8072 16.9858 32.5261C17.5155 33.2448 17.8334 33.724 17.9393 33.9635C18.1513 34.2032 18.2572 34.323 18.3631 34.4427L18.681 34.8021C18.8928 35.0417 19.2107 35.4011 19.6345 35.7605C20.0583 36.1198 20.5881 36.4793 21.1178 36.8387C21.6475 37.198 22.2833 37.4377 22.9189 37.6772C23.6606 37.9169 24.2962 38.0366 24.9319 37.9169H26.5211C26.839 37.9169 27.0509 37.7971 27.2628 37.5574L27.3688 37.4377C27.3688 37.3179 27.4747 37.3179 27.4747 37.198C27.4747 37.0782 27.4747 36.9585 27.4747 36.7189C27.4747 36.2397 27.4747 35.8803 27.5806 35.5209C27.6865 35.1616 27.6866 34.9219 27.7926 34.6824C27.8985 34.4427 28.0044 34.323 28.1103 34.2032C28.2164 34.0833 28.3223 33.9635 28.3223 33.9635H28.4282C28.64 33.8438 28.9579 33.9635 29.1699 34.2032C29.4876 34.4427 29.8055 34.8021 30.0174 35.1616C30.2293 35.5209 30.5472 35.8803 30.971 36.3595C31.3948 36.8387 31.7126 37.198 31.9245 37.3179L32.2423 37.5574C32.4542 37.6772 32.6661 37.7971 32.984 37.9169C33.3019 38.0366 33.5137 38.0366 33.7255 38.0366L37.3278 37.9169C37.6457 37.9169 37.9635 37.7971 38.1754 37.6772C38.3873 37.5574 38.4933 37.4377 38.4933 37.198C38.4933 37.0782 38.4933 36.8387 38.4933 36.7189C38.2813 36.4793 38.2813 36.3595 38.2813 36.2397Z" fill="white"/>
<path d="M50.79 28.8587C50.79 44.5803 39.5311 57.2174 25.7675 57.2174C12.0039 57.2174 0.744934 44.5803 0.744934 28.8587C0.744934 13.1371 12.0039 0.5 25.7675 0.5C39.5311 0.5 50.79 13.1371 50.79 28.8587Z" stroke="white"/>
</g>
<defs>
<clipPath id="clip0_6_34">
<rect width="51.0451" height="57.7174" fill="white" transform="translate(0.244934)"/>
</clipPath>
</defs>
</svg>
